<svg xmlns:dc="http://purl.org/dc/elements/1.1/" xmlns:cc="http://creativecommons.org/ns#" xmlns:rdf="http://www.w3.org/1999/02/22-rdf-syntax-ns#" xmlns:svg="http://www.w3.org/2000/svg" xmlns="http://www.w3.org/2000/svg" xmlns:sodipodi="http://sodipodi.sourceforge.net/DTD/sodipodi-0.dtd" xmlns:inkscape="http://www.inkscape.org/namespaces/inkscape" version="1.1" x="0px" y="0px" viewBox="0 0 100 100"><g transform="translate(0,-952.36218)"><path style="text-indent:0;text-transform:none;direction:ltr;block-progression:tb;baseline-shift:baseline;color:#000000;enable-background:accumulate;" d="M 12 17 C 8.710597 17 6 19.7106 6 23 L 6 81 A 2.0002 2.0002 0 0 0 8 83 L 92 83 A 2.0002 2.0002 0 0 0 94 81 L 94 23 C 94 19.7106 91.289403 17 88 17 L 12 17 z M 12 21 L 88 21 C 89.142657 21 90 21.85734 90 23 L 90 31 L 10 31 L 10 23 C 10 21.85734 10.857343 21 12 21 z M 15 24 C 13.895431 24 13 24.895431 13 26 C 13 27.104569 13.895431 28 15 28 C 16.104569 28 17 27.104569 17 26 C 17 24.895431 16.104569 24 15 24 z M 22 24 C 20.895431 24 20 24.895431 20 26 C 20 27.104569 20.895431 28 22 28 C 23.104569 28 24 27.104569 24 26 C 24 24.895431 23.104569 24 22 24 z M 29 24 C 27.895431 24 27 24.895431 27 26 C 27 27.104569 27.895431 28 29 28 C 30.104569 28 31 27.104569 31 26 C 31 24.895431 30.104569 24 29 24 z M 10 35 L 90 35 L 90 79 L 10 79 L 10 35 z M 55.75 39.96875 A 2.0002 2.0002 0 0 0 54.15625 41.25 L 42.15625 71.25 A 2.0002 2.0002 0 1 0 45.84375 72.71875 L 57.84375 42.71875 A 2.0002 2.0002 0 0 0 55.75 39.96875 z M 35.8125 44.96875 A 2.0002 2.0002 0 0 0 34.9375 45.28125 L 18.9375 55.28125 A 2.0002 2.0002 0 0 0 18.9375 58.6875 L 34.9375 68.6875 A 2.0073929 2.0073929 0 0 0 37.0625 65.28125 L 23.78125 57 L 37.0625 48.6875 A 2.0002 2.0002 0 0 0 35.8125 44.96875 z M 63.90625 44.96875 A 2.0002 2.0002 0 0 0 62.9375 48.6875 L 76.21875 57 L 62.9375 65.28125 A 2.0073929 2.0073929 0 0 0 65.0625 68.6875 L 81.0625 58.6875 A 2.0002 2.0002 0 0 0 81.0625 55.28125 L 65.0625 45.28125 A 2.0002 2.0002 0 0 0 63.90625 44.96875 z " transform="translate(0,952.36218)" fill="#000000" fill-opacity="1" stroke="none" marker="none" visibility="visible" display="inline" overflow="visible"/></g></svg>
