<svg xmlns:x="http://ns.adobe.com/Extensibility/1.0/" xmlns:i="http://ns.adobe.com/AdobeIllustrator/10.0/" xmlns:graph="http://ns.adobe.com/Graphs/1.0/" xmlns="http://www.w3.org/2000/svg" xmlns:xlink="http://www.w3.org/1999/xlink" xmlns:a="http://ns.adobe.com/AdobeSVGViewerExtensions/3.0/" version="1.1" x="0px" y="0px" viewBox="0 0 100 100" enable-background="new 0 0 100 100" xml:space="preserve"><metadata><?xpacket begin="&#65279;" id="W5M0MpCehiHzreSzNTczkc9d"?><x:xmpmeta xmlns:x="adobe:ns:meta/" x:xmptk="Adobe XMP Core 5.5-c014 79.151739, 2013/04/03-12:12:15        "/><?xpacket end="w"?></metadata><path d="M23.5,44.3789063L18.8789063,49h17.2421875L31.5,44.3789063V44H44V21H11v23h12.5V44.3789063z M26.1210938,46  L26.5,45.6210938V44h2v1.6210938L28.8789063,46H26.1210938z M14,41V24h27v17h-9.5h-8H14z"/><path d="M56,74h12.5v0.3789063L63.8789063,79h17.2421875L76.5,74.3789063V74H89V51H56V74z M71.1210938,76L71.5,75.6210938V74h2  v1.6210938L73.8789063,76H71.1210938z M59,54h27v17h-9.5h-8H59V54z"/><polygon points="48.5,68.8789063 33.5605469,53.9394531 31.4394531,56.0605469 46.3789063,71 42.5,71 42.5,74 51.5,74 51.5,65   48.5,65 "/><polygon points="57.5,26 48.5,26 48.5,35 51.5,35 51.5,31.1210938 66.4394531,46.0605469 68.5605469,43.9394531 53.6210938,29   57.5,29 "/></svg>
