<svg xmlns:dc="http://purl.org/dc/elements/1.1/" xmlns:cc="http://creativecommons.org/ns#" xmlns:rdf="http://www.w3.org/1999/02/22-rdf-syntax-ns#" xmlns:svg="http://www.w3.org/2000/svg" xmlns="http://www.w3.org/2000/svg" xmlns:sodipodi="http://sodipodi.sourceforge.net/DTD/sodipodi-0.dtd" xmlns:inkscape="http://www.inkscape.org/namespaces/inkscape" version="1.1" x="0px" y="0px" viewBox="0 0 100 100"><g transform="translate(0,-952.36218)"><path style="text-indent:0;text-transform:none;direction:ltr;block-progression:tb;baseline-shift:baseline;color:#000000;enable-background:accumulate;" d="m 24.994153,979.36218 c 8.25994,0 15.41466,4.4417 19.46875,11 l 41.53125,0 a 2.0002,2.0002 0 0 1 1.34375,0.5 l 10.000001,9 a 2.0002,2.0002 0 0 1 -0.0937,3.06252 l -14.000001,11 a 2.0002,2.0002 0 0 1 -2.65625,-0.1563 l -4.59375,-4.5937 -4.59375,4.5937 a 2.0002,2.0002 0 0 1 -2.8125,0 l -4.59375,-4.5937 -4.59375,4.5937 a 2.0002,2.0002 0 0 1 -1.4063,0.5938 l -13.5625,0 c -4.05857,6.5375 -11.19325,11 -19.4375,11 -12.67882,0 -22.9999996,-10.3212 -22.9999996,-23 0,-12.67882 10.3211796,-23.00002 22.9999996,-23.00002 z m 0,4 c -10.51704,0 -18.9999996,8.483 -18.9999996,19.00002 0,10.517 8.4829596,19 18.9999996,19 7.2288,0 13.50191,-4.0471 16.71875,-9.9688 a 2.0002,2.0002 0 0 1 1.75,-1.0312 l 13.6875,0 5.4375,-5.4375 a 2.0002,2.0002 0 0 1 2.8125,0 l 4.59375,4.5937 4.59375,-4.5937 a 2.0002,2.0002 0 0 1 2.8125,0 l 4.75,4.75 10.718751,-8.4375 -7.625001,-6.87502 -41.78125,0 a 2.0002,2.0002 0 0 1 -1.75,-1.0625 c -3.21684,-5.9216 -9.48995,-9.9375 -16.71875,-9.9375 z m -7,11 c 4.39458,0 8,3.6054 8,8.00002 0,4.3946 -3.60542,8 -8,8 -4.39458,0 -7.9999996,-3.6054 -7.9999996,-8 0,-4.39462 3.6054196,-8.00002 7.9999996,-8.00002 z m 0,4 c -2.2328,0 -4,1.76722 -4,4.00002 0,2.2328 1.7672,4 4,4 2.2328,0 4,-1.7672 4,-4 0,-2.2328 -1.7672,-4.00002 -4,-4.00002 z" fill="#000000" fill-opacity="1" stroke="none" marker="none" visibility="visible" display="inline" overflow="visible"/></g></svg>
