<svg xmlns:dc="http://purl.org/dc/elements/1.1/" xmlns:cc="http://creativecommons.org/ns#" xmlns:rdf="http://www.w3.org/1999/02/22-rdf-syntax-ns#" xmlns:svg="http://www.w3.org/2000/svg" xmlns="http://www.w3.org/2000/svg" xmlns:sodipodi="http://sodipodi.sourceforge.net/DTD/sodipodi-0.dtd" xmlns:inkscape="http://www.inkscape.org/namespaces/inkscape" version="1.1" x="0px" y="0px" viewBox="0 0 100 100"><g transform="translate(0,-952.36218)"><path d="m 84.999499,978.36216 c 0,-5.53295 -4.450199,-10.05535 -10.781199,-13.125 -6.330799,-3.06965 -14.843599,-4.875 -24.2183,-4.875 -9.3747,0 -17.8874,1.80535 -24.2188,4.875 C 19.45,968.30681 15,972.82919 15,978.36216 c 0.01,13.79494 0,34.04164 0,48.00004 0,5.5329 4.4502,10.0241 10.7812,13.0937 6.3313,3.0697 14.8441,4.9063 24.2188,4.9063 9.374701,0 17.887501,-1.8366 24.2188,-4.9063 C 80.549801,1036.3863 85,1031.8951 85,1026.3622 M 50,964.36216 c 8.850701,0 16.8562,1.74755 22.4688,4.46875 5.612301,2.7212 8.5312,6.2276 8.5312,9.53125 0,3.30365 -2.918899,6.77884 -8.5312,9.50004 -5.6126,2.7212 -13.618099,4.5 -22.4688,4.5 -8.8506,0 -16.8562,-1.7788 -22.4688,-4.5 C 21.9187,985.141 19,981.66579 19,978.36216 c 0,-3.30363 2.9188,-6.81005 8.5312,-9.53125 5.6126,-2.7212 13.6182,-4.46875 22.4688,-4.46875 z M 19,986.8622 c 1.8057,1.7644 4.1199,3.3034 6.7812,4.5937 6.3313,3.0697 14.8441,4.9063 24.2188,4.9063 9.374701,0 17.887501,-1.8366 24.2188,-4.9063 2.6612,-1.2903 4.9755,-2.8293 6.7812,-4.5937 0,1.8333 0,5.6666 0,7.5 0,3.3036 -2.918899,6.7788 -8.5312,9.5 -5.6126,2.7212 -13.618099,4.5 -22.4688,4.5 -8.8506,0 -16.8562,-1.7788 -22.4688,-4.5 -5.6125,-2.7212 -8.5312,-6.1964 -8.5312,-9.5 0,-1.8334 0,-5.6667 0,-7.5 z m 0,16 c 1.8057,1.7644 4.1199,3.3034 6.7812,4.5937 6.3313,3.0697 14.8441,4.9063 24.2188,4.9063 9.374701,0 17.887501,-1.8366 24.2188,-4.9063 2.6612,-1.2903 4.9755,-2.8293 6.7812,-4.5937 0,1.8333 0,5.6667 0,7.5 0,3.3036 -2.918899,6.7788 -8.5312,9.5 -5.6126,2.7212 -13.618099,4.5 -22.4688,4.5 -8.8506,0 -16.8562,-1.7788 -22.4688,-4.5 -5.6125,-2.7212 -8.5312,-6.1964 -8.5312,-9.5 0,-1.8333 0,-5.6667 0,-7.5 z m 0,16 c 1.8057,1.7644 4.1199,3.3034 6.7812,4.5937 6.3313,3.0697 14.8441,4.9063 24.2188,4.9063 9.374701,0 17.887501,-1.8366 24.2188,-4.9063 2.6612,-1.2903 4.9755,-2.8292 6.7812,-4.5937 l 0,7.5 c 0,3.3036 -2.918899,6.7788 -8.5312,9.5 -5.6126,2.7212 -13.618099,4.5 -22.4688,4.5 -8.8506,0 -16.8562,-1.7788 -22.4688,-4.5 -5.6123,-2.7212 -8.5312,-6.1964 -8.5312,-9.5 z" style="text-indent:0;text-transform:none;direction:ltr;block-progression:tb;baseline-shift:baseline;color:#000000;enable-background:accumulate;" fill="#000000" fill-opacity="1" stroke="none" marker="none" visibility="visible" display="inline" overflow="visible"/></g></svg>
