<svg xmlns:dc="http://purl.org/dc/elements/1.1/" xmlns:cc="http://creativecommons.org/ns#" xmlns:rdf="http://www.w3.org/1999/02/22-rdf-syntax-ns#" xmlns:svg="http://www.w3.org/2000/svg" xmlns="http://www.w3.org/2000/svg" xmlns:sodipodi="http://sodipodi.sourceforge.net/DTD/sodipodi-0.dtd" xmlns:inkscape="http://www.inkscape.org/namespaces/inkscape" version="1.1" x="0px" y="0px" viewBox="0 0 100 100"><g transform="translate(0,-952.36218)"><path style="font-size:medium;font-style:normal;font-variant:normal;font-weight:normal;font-stretch:normal;text-indent:0;text-align:start;text-decoration:none;line-height:normal;letter-spacing:normal;word-spacing:normal;text-transform:none;direction:ltr;block-progression:tb;writing-mode:lr-tb;text-anchor:start;baseline-shift:baseline;opacity:1;color:#000000;fill:#000000;fill-opacity:1;stroke:none;stroke-width:3.99999951999999980;marker:none;visibility:visible;display:inline;overflow:visible;enable-background:accumulate;font-family:Sans;-inkscape-font-specification:Sans" d="M 50 19 C 41.759139 19 34.944258 25.290892 34.09375 33.3125 C 32.198882 28.470932 27.496269 25 22 25 C 14.843991 25 9 30.84402 9 38 C 9 39.964799 9.46269 41.826824 10.25 43.5 C 5.9703524 45.627722 3 50.138261 3 55.28125 L 3 73.03125 A 2.0001998 2.0001998 0 0 0 5 75.03125 L 26 75 L 26 79 A 2.0001998 2.0001998 0 0 0 28 81 L 72 81 A 2.0001998 2.0001998 0 0 0 74 79 L 74 75 L 95 75.03125 A 2.0001998 2.0001998 0 0 0 97 73.03125 L 97 55.28125 C 97 50.138261 94.029648 45.627689 89.75 43.5 C 90.53731 41.826824 91 39.964799 91 38 C 91 30.84402 85.156009 25 78 25 C 72.503731 25 67.801118 28.470932 65.90625 33.3125 C 65.055742 25.290892 58.24086 19 50 19 z M 50 23 C 56.651105 23 62 28.3489 62 35 C 62 41.65112 56.651102 47 50 47 C 43.348896 47 38 41.65112 38 35 C 38 28.3489 43.348892 23 50 23 z M 22 29 C 26.99425 29 31 33.0058 31 38 C 31 42.99425 26.994228 47 22 47 C 17.005765 47 13 42.99425 13 38 C 13 33.0058 17.005743 29 22 29 z M 78 29 C 82.994257 29 87 33.0058 87 38 C 87 42.99425 82.994235 47 78 47 C 73.005772 47 69 42.99425 69 38 C 69 33.0058 73.00575 29 78 29 z M 34.84375 40.0625 C 35.063585 40.717274 35.325631 41.354462 35.625 41.96875 C 35.110001 42.192938 34.610962 42.409696 34.125 42.6875 C 34.449301 41.851203 34.698521 40.970889 34.84375 40.0625 z M 65.15625 40.0625 C 65.303651 40.984478 65.574541 41.871199 65.90625 42.71875 C 65.420712 42.440947 64.920819 42.16182 64.40625 41.9375 C 64.698049 41.334773 64.940861 40.704031 65.15625 40.0625 z M 37.78125 45.375 C 37.790515 45.371544 37.803226 45.37843 37.8125 45.375 C 40.751127 48.82505 45.130751 51 50 51 C 54.869248 51 59.248873 48.82505 62.1875 45.375 C 66.622784 47.011656 70 51.528734 70 56.65625 L 70 77 L 30 77 L 30 56.65625 C 30 51.545469 33.362708 47.022952 37.78125 45.375 z M 12.5 46.84375 C 14.876823 49.396235 18.254194 51 22 51 C 23.997724 51 25.899132 50.562291 27.59375 49.75 C 26.583813 51.855654 26 54.190031 26 56.65625 L 26 71 L 7 71.03125 L 7 55.28125 C 7 51.512109 9.3727901 48.186421 12.5 46.84375 z M 87.5 46.84375 C 90.62721 48.186421 93 51.512109 93 55.28125 L 93 71.03125 L 74 71 L 74 56.65625 C 74 54.196169 73.412085 51.85061 72.40625 49.75 C 74.100868 50.562291 76.002276 51 78 51 C 81.745806 51 85.123177 49.396235 87.5 46.84375 z " transform="translate(0,952.36218)"/></g></svg>
