<svg xmlns="http://www.w3.org/2000/svg" xmlns:xlink="http://www.w3.org/1999/xlink" version="1.1" x="0px" y="0px" viewBox="0 0 64 64" style="enable-background:new 0 0 64 64;" xml:space="preserve"><g><g><path d="M59,12.9H39.5v-0.4c0-3.6-2.9-6.5-6.5-6.5h-2.1c-3.6,0-6.5,2.9-6.5,6.5v0.4H5c-2.2,0-4,1.8-4,4V54c0,2.2,1.8,4,4,4h54    c2.2,0,4-1.8,4-4V16.9C63,14.7,61.2,12.9,59,12.9z M26.5,12.5c0-2.5,2-4.5,4.5-4.5h2.1c2.5,0,4.5,2,4.5,4.5v0.4h-11V12.5z M61,54    c0,1.1-0.9,2-2,2H5c-1.1,0-2-0.9-2-2V16.9c0-1.1,0.9-2,2-2h54c1.1,0,2,0.9,2,2V54z"/><path d="M22.8,34.3c1-1.3,1.6-3,1.6-4.8c0-4.2-3.2-7.6-7.2-7.6S10,25.4,10,29.5c0,1.8,0.6,3.5,1.6,4.8c-3.2,1.8-5.3,5.2-5.3,9.1    V48c0,0.6,0.4,1,1,1h19.8c0.6,0,1-0.4,1-1v-4.5C28.1,39.6,26,36.1,22.8,34.3z M17.2,23.9c2.9,0,5.2,2.5,5.2,5.6s-2.3,5.6-5.2,5.6    S12,32.6,12,29.5S14.3,23.9,17.2,23.9z M26.1,47H8.3v-3.5c0-3.4,1.9-6.3,4.8-7.6c1.2,0.8,2.6,1.3,4.1,1.3c1.7,0,3.3-0.6,4.5-1.7    l-0.2,0.4c2.8,1.4,4.6,4.3,4.6,7.6V47z"/><path d="M57.1,25.7h-20c-0.6,0-1,0.4-1,1s0.4,1,1,1h20c0.6,0,1-0.4,1-1S57.6,25.7,57.1,25.7z"/><path d="M57.1,34.5h-20c-0.6,0-1,0.4-1,1s0.4,1,1,1h20c0.6,0,1-0.4,1-1S57.6,34.5,57.1,34.5z"/><path d="M57.1,43.2h-20c-0.6,0-1,0.4-1,1s0.4,1,1,1h20c0.6,0,1-0.4,1-1S57.6,43.2,57.1,43.2z"/></g></g></svg>
