<svg xmlns="http://www.w3.org/2000/svg" xmlns:xlink="http://www.w3.org/1999/xlink" xml:space="preserve" version="1.1" style="shape-rendering:geometricPrecision;text-rendering:geometricPrecision;image-rendering:optimizeQuality;" viewBox="0 0 446.2 446.2" x="0px" y="0px" fill-rule="evenodd" clip-rule="evenodd"><defs><style type="text/css">
   
    .fil0 {fill:black}
    .fil1 {fill:black;fill-rule:nonzero}
   
  </style></defs><g><path class="fil0" d="M240.19 83.54c16.85,-0.8 31.16,12.22 31.95,29.07 0.8,16.86 -12.22,31.17 -29.07,31.96 -16.85,0.8 -31.16,-12.22 -31.96,-29.08 -0.79,-16.85 12.23,-31.16 29.08,-31.95z"/><path class="fil0" d="M179.91 223.86l-5.71 -15.12c-0.31,-0.84 -0.2,-1.7 0.31,-2.44 13.11,-18.64 32.95,-35.49 57.23,-33.12 15.77,1.52 26.63,16.48 23.22,31.94 -8.82,39.95 -18.27,79.76 -27.09,119.7 -1.2,5.44 3.96,10.08 9.24,8.32 9,-3.01 17.41,-14.54 22.86,-21.97 1.24,-1.69 3.85,-1.33 4.6,0.63l5.69 15.11c0.32,0.84 0.22,1.71 -0.3,2.45 -13.12,18.64 -32.95,35.48 -57.24,33.11 -15.76,-1.53 -26.63,-16.47 -23.21,-31.94 8.82,-39.95 18.27,-79.75 27.08,-119.7 1.2,-5.44 -3.95,-10.08 -9.23,-8.31 -9,3 -17.4,14.52 -22.87,21.96 -1.24,1.69 -3.85,1.33 -4.58,-0.62z"/><path class="fil1" d="M223.1 0c123.12,0 223.1,99.98 223.1,223.1 0,123.12 -99.98,223.1 -223.1,223.1 -123.12,0 -223.1,-99.98 -223.1,-223.1 0,-123.12 99.98,-223.1 223.1,-223.1zm0 22.86c-110.66,0 -200.24,89.58 -200.24,200.24 0,110.66 89.58,200.24 200.24,200.24 110.66,0 200.24,-89.58 200.24,-200.24 0,-110.66 -89.58,-200.24 -200.24,-200.24z"/></g></svg>
