<svg xmlns:dc="http://purl.org/dc/elements/1.1/" xmlns:cc="http://creativecommons.org/ns#" xmlns:rdf="http://www.w3.org/1999/02/22-rdf-syntax-ns#" xmlns:svg="http://www.w3.org/2000/svg" xmlns="http://www.w3.org/2000/svg" xmlns:sodipodi="http://sodipodi.sourceforge.net/DTD/sodipodi-0.dtd" xmlns:inkscape="http://www.inkscape.org/namespaces/inkscape" version="1.1" x="0px" y="0px" viewBox="0 0 100 100" xml:space="preserve"><path d="m 89.090908,5e-7 c -6.016363,0 -10.909091,4.892727 -10.909091,10.9090905 0,1.881818 0.478182,3.652727 1.32,5.2 L 61.630908,33.98 c -2.463636,-1.918182 -5.547272,-3.070909 -8.903636,-3.070909 -3.356363,0 -6.44,1.152727 -8.905454,3.06909 L 29.878182,20.034545 c 0.64,-1.081817 1.030909,-2.325454 1.030909,-3.670909 0,-4.010909 -3.261819,-7.2727265 -7.272728,-7.2727265 -4.010909,0 -7.272727,3.2618175 -7.272727,7.2727265 0,4.010909 3.261818,7.272727 7.272727,7.272727 1.345455,0 2.589091,-0.390909 3.670909,-1.030909 L 41.250909,36.54909 c -1.916364,2.465455 -3.069091,5.549091 -3.069091,8.905455 0,3.356364 1.152727,6.44 3.069091,8.903636 L 18.225454,77.385454 c -1.938181,-1.758182 -4.5,-2.84 -7.316363,-2.84 C 4.8927277,74.545455 5e-7,79.438181 5e-7,85.454545 c 0,6.016363 4.8927272,10.90909 10.9090905,10.90909 6.016363,0 10.909091,-4.892726 10.909091,-10.90909 0,-1.881818 -0.478182,-3.652728 -1.32,-5.2 L 43.823636,56.92909 c 2.010909,1.563637 4.436364,2.610909 7.087274,2.943638 V 78.345455 C 45.76,79.214545 41.82,83.694546 41.82,89.090908 41.82,95.107272 46.712727,100 52.72909,100 c 6.016364,0 10.909092,-4.892727 10.909092,-10.909092 0,-5.394544 -3.94,-9.874545 -9.090909,-10.745453 V 59.872727 c 2.650909,-0.332728 5.076364,-1.38 7.087273,-2.943637 l 13.943635,13.943637 c -0.641818,1.083636 -1.032726,2.327272 -1.032726,3.672727 0,4.010909 3.261818,7.272727 7.272727,7.272727 4.010909,0 7.272727,-3.261818 7.272727,-7.272727 0,-4.010909 -3.261818,-7.272727 -7.272727,-7.272727 -1.345455,0 -2.589091,0.390909 -3.670909,1.030909 L 64.203637,54.359999 c 1.916363,-2.465454 3.069091,-5.54909 3.069091,-8.905453 0,-3.356364 -1.152728,-6.44 -3.069091,-8.903636 L 81.776364,18.978182 c 1.936363,1.758181 4.498182,2.84 7.314544,2.84 C 95.107272,21.818182 100,16.925454 100,10.909091 100,4.8927275 95.107272,5e-7 89.090908,5e-7 Z M 20,16.363636 c 0,-2.005454 1.630909,-3.636363 3.636363,-3.636363 2.005455,0 3.636364,1.630909 3.636364,3.636363 C 27.272727,18.369091 25.641818,20 23.636363,20 21.630909,20 20,18.369091 20,16.363636 Z m -9.090909,76.363636 c -4.0109088,0 -7.2727269,-3.261818 -7.2727269,-7.272727 0,-4.010909 3.2618181,-7.272728 7.2727269,-7.272728 4.010909,0 7.272727,3.261819 7.272727,7.272728 0,4.010909 -3.261818,7.272727 -7.272727,7.272727 z M 60,89.090908 c 0,4.010909 -3.261818,7.272727 -7.272728,7.272727 -4.010909,0 -7.272727,-3.261818 -7.272727,-7.272727 0,-4.010909 3.261818,-7.272727 7.272727,-7.272727 4.010909,0 7.272728,3.261818 7.272728,7.272727 z M 52.727272,56.363636 c -6.016363,0 -10.909091,-4.892727 -10.909091,-10.909091 0,-6.016364 4.892728,-10.909091 10.909091,-10.909091 6.016364,0 10.909092,4.892727 10.909092,10.909091 0,6.016364 -4.892728,10.909091 -10.909092,10.909091 z m 32.727273,18.181819 c 0,2.005454 -1.630909,3.636363 -3.636364,3.636363 -2.005455,0 -3.636364,-1.630909 -3.636364,-3.636363 0,-2.005455 1.630909,-3.636364 3.636364,-3.636364 2.005455,0 3.636364,1.630909 3.636364,3.636364 z m 3.636363,-56.363636 c -4.010909,0 -7.272727,-3.261818 -7.272727,-7.272727 0,-4.0109095 3.261818,-7.2727275 7.272727,-7.2727275 4.010909,0 7.272727,3.261818 7.272727,7.2727275 0,4.010909 -3.261818,7.272727 -7.272727,7.272727 z" style="" stroke-width="1"/></svg>
