<svg xmlns="http://www.w3.org/2000/svg" xmlns:xlink="http://www.w3.org/1999/xlink" version="1.1" x="0px" y="0px" viewBox="0 0 90 90" enable-background="new 0 0 90 90" xml:space="preserve"><path d="M44.7,9.1c10.2,0,18.6,8.4,18.6,18.6c0,15.8-18.6,32.5-18.6,32.5S26.1,43.8,26.1,27.7C26.1,17.4,34.5,9.1,44.7,9.1   M44.7,35.1c4.1,0,7.4-3.3,7.4-7.4c0-4.1-3.3-7.4-7.4-7.4c-4.1,0-7.4,3.3-7.4,7.4C37.3,31.8,40.7,35.1,44.7,35.1 M44.7,5.9  c-12,0-21.8,9.8-21.8,21.8C23,45,41.9,61.8,42.7,62.5c0.6,0.5,1.3,0.8,2.1,0.8c0.8,0,1.5-0.3,2.1-0.8c0.8-0.7,19.6-17.8,19.6-34.8  C66.5,15.7,56.7,5.9,44.7,5.9L44.7,5.9z M44.7,32c-2.4,0-4.3-1.9-4.3-4.3c0-2.4,1.9-4.3,4.3-4.3c2.4,0,4.3,1.9,4.3,4.3  C49,30,47.1,32,44.7,32L44.7,32z"/><path d="M59.4,58.9c-1-0.2-1.9,0.4-2.1,1.4c-0.2,0.9,0.4,1.9,1.4,2c8.9,1.7,14.5,5.1,14.5,8.7c0,4.8-12.2,8.5-28.4,8.5  c-16.2,0-28.4-3.6-28.4-8.5c0-3.4,5.8-6.9,14.5-8.7c0.9-0.2,1.5-1.1,1.3-2.1c-0.2-0.9-1.2-1.5-2.1-1.3c-10.8,2.3-17.3,6.8-17.3,12.1  c0,8.8,16.5,12,31.9,12s31.9-3.1,31.9-12C76.7,65.5,70.4,61.1,59.4,58.9z"/></svg>
