<svg xmlns="http://www.w3.org/2000/svg" xmlns:xlink="http://www.w3.org/1999/xlink" version="1.1" x="0px" y="0px" viewBox="0 0 48 48" enable-background="new 0 0 48 48" xml:space="preserve"><g><path d="M12.3,36.8c-0.3,0-0.6-0.1-0.8-0.3L0.8,24.7c-0.4-0.4-0.4-1,0-1.4l10.7-11.8c0.4-0.4,1-0.4,1.4-0.1c0.4,0.4,0.4,1,0.1,1.4   L3,24l10.1,11.1c0.4,0.4,0.3,1.101-0.1,1.4C12.8,36.7,12.5,36.8,12.3,36.8z"/></g><g><path d="M35.8,36.8c-0.2,0-0.5-0.1-0.7-0.3c-0.399-0.4-0.399-1-0.1-1.4L45.1,24l-10-11.1c-0.399-0.4-0.3-1.1,0.101-1.4   c0.399-0.4,1.1-0.3,1.399,0.1l10.7,11.8c0.4,0.4,0.4,1,0,1.4L36.6,36.5C36.4,36.7,36.1,36.8,35.8,36.8z"/></g><g><path d="M18.7,41.1c-0.1,0-0.2,0-0.3-0.1c-0.5-0.2-0.8-0.8-0.6-1.3L28.5,7.6c0.2-0.5,0.8-0.8,1.3-0.6s0.8,0.8,0.601,1.3L19.7,40.4   C19.5,40.8,19.1,41.1,18.7,41.1z"/></g></svg>
