<svg xmlns="http://www.w3.org/2000/svg" xmlns:xlink="http://www.w3.org/1999/xlink" version="1.1" x="0px" y="0px" viewBox="0 0 52 52" style="enable-background:new 0 0 52 52;" xml:space="preserve"><g><path d="M51,16.9c0-0.1,0-0.1,0-0.2c0-0.1-0.1-0.1-0.1-0.2c0,0,0-0.1-0.1-0.1l-9.1-10C41.4,6.1,41.2,6,40.9,6H11.1   c-0.3,0-0.5,0.1-0.7,0.3l-9.1,10c0,0,0,0.1-0.1,0.1c0,0.1-0.1,0.1-0.1,0.2c0,0.1,0,0.1,0,0.2c0,0,0,0.1,0,0.1v14v14   c0,0.6,0.4,1,1,1h48c0.6,0,1-0.4,1-1V31V17C51,16.9,51,16.9,51,16.9z M3,18h46v12H3V18z M11.6,8h28.9l7.3,8H4.3L11.6,8z M49,44H3   V32h46V44z"/><path d="M23.7,23H6.5c-0.6,0-1,0.4-1,1s0.4,1,1,1h17.1c0.6,0,1-0.4,1-1S24.2,23,23.7,23z"/><path d="M34.5,23H33c-0.6,0-1,0.4-1,1s0.4,1,1,1h1.5c0.6,0,1-0.4,1-1S35,23,34.5,23z"/><path d="M40,23h-1.5c-0.6,0-1,0.4-1,1s0.4,1,1,1H40c0.6,0,1-0.4,1-1S40.5,23,40,23z"/><path d="M45.5,23H44c-0.6,0-1,0.4-1,1s0.4,1,1,1h1.5c0.6,0,1-0.4,1-1S46,23,45.5,23z"/><path d="M6.5,39h17.1c0.6,0,1-0.4,1-1s-0.4-1-1-1H6.5c-0.6,0-1,0.4-1,1S6,39,6.5,39z"/><path d="M33,39h1.5c0.6,0,1-0.4,1-1s-0.4-1-1-1H33c-0.6,0-1,0.4-1,1S32.4,39,33,39z"/><path d="M38.5,39H40c0.6,0,1-0.4,1-1s-0.4-1-1-1h-1.5c-0.6,0-1,0.4-1,1S37.9,39,38.5,39z"/><path d="M44,39h1.5c0.6,0,1-0.4,1-1s-0.4-1-1-1H44c-0.6,0-1,0.4-1,1S43.4,39,44,39z"/></g></svg>
