<svg xmlns="http://www.w3.org/2000/svg" xmlns:xlink="http://www.w3.org/1999/xlink" version="1.1" x="0px" y="0px" viewBox="0 0 512 512" style="enable-background:new 0 0 512 512;" xml:space="preserve"><g><path d="M356.2,133c0-55.2-44.9-100.2-100.2-100.2S155.8,77.8,155.8,133S200.8,233.2,256,233.2   S356.2,188.2,356.2,133z M173.8,133c0-45.3,36.9-82.2,82.2-82.2s82.2,36.9,82.2,82.2s-36.9,82.2-82.2,82.2S173.8,178.3,173.8,133z"/><path d="M87,410v60.2c0,5,3.8,8.8,8.8,8.8h320.4c5,0,8.8-3.8,8.8-8.8V410c0-93.3-75.7-169.2-169-169.2   C162.7,240.8,87,316.7,87,410z M256,258.8c83.4,0,151,67.8,151,151.2v51H105v-51C105,326.6,172.6,258.8,256,258.8z"/></g></svg>
